<svg width="205" height="68" viewBox="0 0 205 68" fill="none" xmlns="http://www.w3.org/2000/svg">
<g filter="url(#filter0_d_628_902)">
<path d="M98.3609 25.5181C89.8797 25.5181 83.0039 32.3945 83.0039 40.8765C83.0039 49.3585 89.8797 56.2349 98.3609 56.2349C106.842 56.2349 113.718 49.3585 113.718 40.8765C113.718 32.3945 106.842 25.5181 98.3609 25.5181ZM98.1567 45.7728C97.8049 45.4097 97.6177 44.9558 97.6177 44.4622V39.9063C97.6177 39.6566 97.544 39.4637 97.3738 39.2935C97.2036 39.1233 97.0164 39.0439 96.7611 39.0439C96.5058 39.0439 96.3186 39.1176 96.1484 39.2935C95.9782 39.4637 95.8988 39.651 95.8988 39.9063V44.4622C95.8988 44.9614 95.7059 45.4153 95.3428 45.7784C94.9797 46.1415 94.5259 46.3344 94.0267 46.3344C93.5274 46.3344 93.0566 46.1415 92.6935 45.7784C92.3304 45.4153 92.1375 44.9614 92.1375 44.4622V39.9063C92.1375 39.6566 92.0638 39.4637 91.8936 39.2935C91.7234 39.1233 91.5362 39.0439 91.2809 39.0439C91.0256 39.0439 90.8384 39.1176 90.6682 39.2935C90.498 39.4637 90.4186 39.651 90.4186 39.9063V44.4622C90.4186 44.9558 90.2314 45.4097 89.8797 45.7728C89.5222 46.1415 89.0627 46.3344 88.5465 46.3344C88.0302 46.3344 87.5764 46.1415 87.2133 45.7784C86.8502 45.4153 86.6574 44.9614 86.6574 44.4622V37.5517C86.6574 37.0525 86.8502 36.5986 87.2133 36.2355C87.5764 35.8724 88.0359 35.6795 88.5465 35.6795C89.0571 35.6795 89.5166 35.8724 89.8797 36.2411C89.9137 36.2752 89.9421 36.3092 89.9761 36.3433C90.0612 36.2865 90.152 36.2355 90.2484 36.1787C90.5094 36.0369 90.81 35.9177 91.1391 35.8213C91.4851 35.7248 91.8652 35.6738 92.285 35.6738C92.7729 35.6738 93.1814 35.7248 93.5388 35.8326C93.8848 35.9404 94.1912 36.0766 94.4521 36.2468C94.6394 36.3716 94.8095 36.5078 94.957 36.6553C95.1216 36.5078 95.3088 36.3716 95.5244 36.2468C95.8194 36.0766 96.1711 35.9404 96.5682 35.8326C96.9653 35.7248 97.4475 35.6738 97.9921 35.6738C98.2928 35.6738 98.6332 35.7192 99.0076 35.8156C99.3991 35.9121 99.7678 36.0766 100.103 36.3036C100.023 36.4511 99.9607 36.6099 99.9096 36.7688C99.8813 36.8539 99.8642 36.9333 99.8472 37.0184C99.8018 36.9787 99.7508 36.9447 99.6997 36.9106C99.4274 36.7291 99.1381 36.5986 98.8261 36.5191C98.514 36.4397 98.2361 36.4 97.9921 36.4C97.5042 36.4 97.0901 36.4454 96.7554 36.5362C96.415 36.6269 96.1257 36.7404 95.8874 36.8766C95.6492 37.0127 95.4563 37.1659 95.3088 37.3305C95.1613 37.495 95.0365 37.6482 94.9457 37.8014C94.8266 37.6312 94.7018 37.4666 94.5656 37.3021C94.4295 37.1376 94.2593 36.9901 94.055 36.8596C93.8565 36.7291 93.6125 36.6213 93.3346 36.5362C93.0566 36.4511 92.7048 36.4113 92.2964 36.4113C91.9447 36.4113 91.6326 36.4511 91.349 36.5305C91.071 36.6099 90.8214 36.7064 90.6115 36.8255C90.4016 36.9447 90.22 37.0638 90.0725 37.2C89.925 37.3305 89.8002 37.4496 89.7095 37.5574C89.7095 37.251 89.596 36.9844 89.3747 36.7574C89.1535 36.5305 88.8812 36.417 88.5635 36.417C88.2458 36.417 87.9735 36.5305 87.7466 36.7574C87.5197 36.9844 87.4062 37.251 87.4062 37.5574V44.4678C87.4062 44.7742 87.5197 45.0409 87.7466 45.2678C87.9735 45.4948 88.2458 45.6082 88.5635 45.6082C88.8812 45.6082 89.1535 45.4948 89.3747 45.2678C89.596 45.0409 89.7095 44.7742 89.7095 44.4678V39.912C89.7095 39.4694 89.8626 39.0893 90.169 38.7829C90.4753 38.4765 90.8497 38.3233 91.2979 38.3233C91.7461 38.3233 92.1205 38.4765 92.4269 38.7829C92.7332 39.0893 92.8864 39.4637 92.8864 39.912V44.4678C92.8864 44.7742 92.9998 45.0409 93.2268 45.2678C93.4537 45.4948 93.726 45.6082 94.0437 45.6082C94.3614 45.6082 94.6167 45.4948 94.8436 45.2678C95.0705 45.0409 95.184 44.7742 95.184 44.4678V39.912C95.184 39.4694 95.3371 39.0893 95.6435 38.7829C95.9498 38.4765 96.3243 38.3233 96.7724 38.3233C97.2206 38.3233 97.595 38.4765 97.9014 38.7829C98.2077 39.0893 98.3609 39.4637 98.3609 39.912V44.4678C98.3609 44.7742 98.4743 45.0409 98.6956 45.2678C98.9168 45.4948 99.1891 45.6082 99.5068 45.6082C99.8245 45.6082 100.097 45.4948 100.324 45.2678C100.551 45.0409 100.664 44.7742 100.664 44.4678V40.4169C100.885 40.9843 101.141 41.631 101.396 42.2665V44.4678C101.396 44.9671 101.203 45.421 100.84 45.7841C100.477 46.1472 100.017 46.3401 99.5068 46.3401C98.9963 46.3401 98.5311 46.1472 98.1737 45.7784L98.1567 45.7728ZM107.058 47.2252C107.058 47.2252 107.058 47.2252 107.058 47.2309C106.876 47.7699 106.655 48.1954 106.371 48.5245C106.099 48.8478 105.787 49.0975 105.458 49.279C105.129 49.4606 104.771 49.5741 104.403 49.6251C104.091 49.6648 103.79 49.6875 103.506 49.6875H102.678C102.366 49.6875 102.082 49.6251 101.827 49.506C101.595 49.3925 101.39 49.245 101.22 49.0691C101.044 48.8876 100.908 48.6776 100.817 48.4507C100.721 48.2181 100.675 47.9798 100.675 47.7358C100.675 47.3443 100.806 46.9926 101.061 46.7089C101.248 46.4933 101.606 46.2437 102.236 46.2437C102.497 46.2437 102.752 46.2437 102.99 46.2266C103.172 46.221 103.325 46.1926 103.45 46.1529C103.484 46.1415 103.529 46.1245 103.563 46.0962C103.563 46.0791 103.574 46.0451 103.574 45.9884C103.574 45.8976 103.557 45.7898 103.529 45.665C103.495 45.5175 103.433 45.3359 103.353 45.1316L100.704 38.4028C100.607 38.1588 100.556 37.8978 100.556 37.6255C100.556 37.4269 100.59 37.2227 100.653 37.0127C100.721 36.7915 100.829 36.5872 100.97 36.4C101.124 36.2014 101.328 36.0312 101.578 35.9064C101.833 35.7759 102.139 35.7078 102.474 35.7078C102.843 35.7078 103.189 35.8043 103.501 35.9972C103.852 36.2071 104.102 36.5305 104.227 36.9276L105.401 40.5531L106.303 36.9901C106.417 36.5645 106.666 36.2241 107.029 35.9972C107.353 35.7986 107.704 35.6965 108.085 35.6965C108.578 35.6965 109.021 35.861 109.406 36.1844C109.826 36.5362 110.047 37.0241 110.047 37.6028C110.047 37.7844 110.019 37.9602 109.962 38.1304L107.041 47.2422L107.058 47.2252Z" fill="white"/>
<path d="M108.097 36.4121C107.853 36.4121 107.626 36.4745 107.422 36.605C107.217 36.7298 107.081 36.9171 107.019 37.161L105.493 43.1807L103.541 37.144C103.468 36.9114 103.331 36.7355 103.127 36.6107C102.929 36.4915 102.707 36.4291 102.475 36.4291C102.242 36.4291 102.066 36.4688 101.913 36.5483C101.76 36.6277 101.635 36.7242 101.55 36.8433C101.459 36.9624 101.391 37.0873 101.351 37.2234C101.312 37.3596 101.289 37.4958 101.289 37.6206C101.289 37.8021 101.323 37.9723 101.386 38.1312L104.035 44.8657C104.131 45.1097 104.199 45.3196 104.239 45.5012C104.279 45.6827 104.301 45.8473 104.301 45.9948C104.301 46.2388 104.245 46.426 104.137 46.5565C104.023 46.687 103.876 46.7891 103.683 46.8515C103.49 46.9139 103.275 46.9536 103.025 46.965C102.775 46.9763 102.514 46.982 102.236 46.982C101.958 46.982 101.743 47.0558 101.607 47.2033C101.476 47.3508 101.408 47.5323 101.408 47.7423C101.408 47.8898 101.437 48.0373 101.493 48.1791C101.55 48.321 101.635 48.4515 101.749 48.5706C101.862 48.6897 101.993 48.7805 102.146 48.8543C102.299 48.928 102.475 48.9678 102.679 48.9678H103.507C103.763 48.9678 104.029 48.9507 104.307 48.911C104.585 48.8713 104.857 48.7862 105.107 48.65C105.362 48.5139 105.595 48.3153 105.816 48.06C106.032 47.8047 106.213 47.4586 106.366 47.0104L109.288 37.8929C109.322 37.7965 109.333 37.7 109.333 37.5922C109.333 37.2348 109.209 36.9454 108.953 36.7355C108.698 36.5256 108.414 36.4178 108.097 36.4178V36.4121Z" fill="white"/>
<path d="M1.4375 50.9469V22.3521H6.15181V50.9526H1.4375V50.9469Z" fill="white"/>
<path d="M29.2534 39.9968C29.2534 46.0165 24.6355 50.9185 18.9568 50.9185C13.278 50.9185 8.66016 46.0222 8.66016 39.9968C8.66016 33.9715 13.278 29.0752 18.9568 29.0752C24.6355 29.0752 29.2534 33.9715 29.2534 39.9968ZM24.4937 39.9968C24.4937 36.5984 22.0089 33.8353 18.9568 33.8353C15.9047 33.8353 13.4199 36.5984 13.4199 39.9968C13.4199 43.3953 15.9047 46.1584 18.9568 46.1584C22.0089 46.1584 24.4937 43.3953 24.4937 39.9968Z" fill="white"/>
<path d="M46.2109 42.6639H51.1522C50.131 47.5432 46.0124 51.197 41.1052 51.197C35.4265 51.197 30.8086 46.3007 30.8086 40.281C30.8086 34.2614 35.4265 29.3594 41.1052 29.3594C46.0124 29.3594 50.131 33.0245 51.1522 37.9038H46.2109C45.3713 35.6797 43.3971 34.1195 41.1052 34.1195C38.0531 34.1195 35.5683 36.8882 35.5683 40.281C35.5683 43.6738 38.0531 46.4369 41.1052 46.4369C43.3971 46.4369 45.3713 44.8766 46.2109 42.6583V42.6639Z" fill="white"/>
<path d="M64.7945 38.4594L73.3325 50.9526H67.5346L61.3169 41.7557L58.3159 44.5925V50.9526H53.6016V22.3521H58.3159V38.709L68.6919 28.9958L74.6543 29.0696L64.8002 38.4594H64.7945Z" fill="white"/>
<path d="M143.058 40.0315C143.058 46.0512 138.44 50.9475 132.761 50.9475C130.929 50.9475 129.199 50.4425 127.701 49.5461V57.96H122.992V29.7453H127.701V30.5226C129.199 29.6262 130.929 29.1099 132.761 29.1099C138.44 29.1099 143.058 34.0118 143.058 40.0315ZM138.298 40.0315C138.298 40.0315 138.298 40.0202 138.298 40.0145C138.287 36.7465 136.097 34.0856 133.329 33.887C133.221 33.8813 133.113 33.87 133.005 33.87C132.971 33.87 132.937 33.87 132.903 33.8757C132.858 33.8757 132.812 33.8757 132.767 33.8757C132.67 33.8757 132.574 33.8984 132.478 33.904C132.466 33.904 132.461 33.904 132.455 33.904C131.434 34.0062 130.6 34.4203 129.93 35.0217C128.586 36.1394 127.712 37.9663 127.712 40.0315C127.712 40.0372 127.712 40.0485 127.712 40.0542C127.712 40.0599 127.712 40.0712 127.712 40.0769C127.712 40.2301 127.718 40.3946 127.735 40.5705C127.741 40.6556 127.752 40.7407 127.758 40.8201C127.763 40.8712 127.769 40.9279 127.78 40.979C127.854 41.5464 127.996 42.0854 128.194 42.5846C128.728 44.003 129.76 45.4101 131.564 45.9547C131.944 46.0796 132.336 46.1533 132.744 46.176C132.756 46.176 132.761 46.176 132.773 46.176C132.79 46.176 132.801 46.176 132.818 46.176C132.88 46.176 132.948 46.1874 133.011 46.1874C133.062 46.1874 133.107 46.1817 133.153 46.176C133.283 46.176 133.408 46.1647 133.533 46.1533C133.544 46.1533 133.555 46.1533 133.567 46.1533C134.27 46.0739 134.934 45.8299 135.53 45.4441C135.541 45.4441 135.547 45.4328 135.552 45.4271C135.677 45.342 135.802 45.2569 135.927 45.1661C136.023 45.0924 136.114 45.0129 136.205 44.9278C136.233 44.8994 136.267 44.8711 136.301 44.8427C137.521 43.7137 138.309 41.9719 138.309 40.0145L138.298 40.0315Z" fill="white"/>
<path d="M161.149 35.1516V50.5213H156.389V49.6136C154.636 50.7483 152.889 50.9185 152.032 50.9185C147.817 50.9185 144.391 47.4917 144.391 43.2762C144.391 39.0607 147.817 35.6339 152.032 35.6339H156.389V35.1573C156.389 34.4311 155.793 33.8353 155.067 33.8353H152.032V29.0752H155.067C158.42 29.0752 161.149 31.8042 161.149 35.1573V35.1516ZM156.298 40.3883H152.038C150.449 40.3883 149.156 41.6819 149.156 43.2762C149.156 44.8705 150.449 46.164 152.038 46.164C154.897 46.164 155.93 42.8507 156.298 40.394V40.3883Z" fill="white"/>
<path d="M179.398 48.3139C178.28 49.5167 176.153 50.9578 172.403 50.9578C169.022 50.9578 166.991 49.6359 165.902 48.5125C164.461 47.0544 163.65 45.0005 163.672 42.8786L168.103 42.9354C168.103 43.3779 168.182 44.5126 169.056 45.392C169.794 46.1353 170.923 46.5211 172.403 46.5211C174.701 46.5211 175.773 45.7835 176.267 45.1651C176.567 44.785 176.442 44.2289 176.011 44.0077C174.95 43.463 173.016 42.907 171.842 42.5666L171.025 42.334C167.201 41.2163 163.672 39.6447 163.672 35.7356C163.667 34.3172 164.347 32.825 165.539 31.6336C167.156 30.0223 169.55 29.1372 172.278 29.1372H172.312C175.257 29.1429 177.532 30.0166 179.086 31.7471C180.901 33.7669 181.055 36.2462 181.026 37.2504V37.7554H176.584V37.2391C176.584 37.2391 176.698 35.7015 175.762 34.686C175.087 33.9484 173.924 33.5683 172.301 33.5683H172.278C169.153 33.5683 168.426 35.2704 168.489 35.7356C168.551 36.1951 168.534 36.9724 172.273 38.0731L173.067 38.3057C176.715 39.3553 180.845 40.5354 181.111 44.0644C181.191 45.1537 180.788 46.8388 179.404 48.3139H179.398Z" fill="white"/>
<path d="M198.839 48.3139C197.722 49.5167 195.594 50.9578 191.845 50.9578C188.463 50.9578 186.432 49.6359 185.343 48.5125C183.902 47.0544 183.091 45.0005 183.114 42.8786L187.544 42.9354C187.544 43.3779 187.624 44.5126 188.497 45.392C189.235 46.1353 190.364 46.5211 191.845 46.5211C194.142 46.5211 195.214 45.7835 195.708 45.1651C196.009 44.785 195.884 44.2289 195.453 44.0077C194.392 43.463 192.457 42.907 191.283 42.5666L190.466 42.334C186.642 41.2163 183.114 39.6447 183.114 35.7356C183.108 34.3172 183.789 32.825 184.98 31.6336C186.597 30.0223 188.991 29.1372 191.72 29.1372H191.754C194.698 29.1429 196.973 30.0166 198.527 31.7471C200.343 33.7669 200.496 36.2462 200.468 37.2504V37.7554H196.026V37.2391C196.026 37.2391 196.139 35.7015 195.203 34.686C194.528 33.9484 193.365 33.5683 191.742 33.5683H191.72C188.594 33.5683 187.868 35.2704 187.93 35.7356C187.993 36.1951 187.976 36.9724 191.714 38.0731L192.508 38.3057C196.156 39.3553 200.286 40.5354 200.553 44.0644C200.632 45.1537 200.229 46.8388 198.845 48.3139H198.839Z" fill="white"/>
<path d="M113.059 23.5893V16.9966C113.059 8.88909 106.467 2.29639 98.3602 2.29639C90.2534 2.29639 83.6613 8.88909 83.6613 16.9966V23.5893C78.7711 27.7538 75.668 33.9493 75.668 40.8711C75.668 53.404 85.8284 63.5654 98.3602 63.5654C110.892 63.5654 121.052 53.404 121.052 40.8711C121.052 33.9493 117.949 27.7481 113.059 23.5893ZM87.0651 16.9966C87.0651 10.767 92.1312 5.70054 98.3602 5.70054C104.589 5.70054 109.655 10.767 109.655 16.9966V21.1894C106.331 19.2774 102.473 18.1767 98.3602 18.1767C94.2472 18.1767 90.3952 19.2774 87.0651 21.1894V16.9966ZM98.3602 60.1613C87.7062 60.1613 79.0718 51.5261 79.0718 40.8711C79.0718 30.2161 87.7062 21.5809 98.3602 21.5809C109.014 21.5809 117.649 30.2161 117.649 40.8711C117.649 51.5261 109.014 60.1613 98.3602 60.1613Z" fill="white"/>
</g>
<defs>
<filter id="filter0_d_628_902" x="-0.00250006" y="0.856387" width="204.885" height="67.029" filterUnits="userSpaceOnUse" color-interpolation-filters="sRGB">
<feFlood flood-opacity="0" result="BackgroundImageFix"/>
<feColorMatrix in="SourceAlpha" type="matrix" values="0 0 0 0 0 0 0 0 0 0 0 0 0 0 0 0 0 0 127 0" result="hardAlpha"/>
<feOffset dx="1.44" dy="1.44"/>
<feGaussianBlur stdDeviation="1.44"/>
<feColorMatrix type="matrix" values="0 0 0 0 0 0 0 0 0 0 0 0 0 0 0 0 0 0 0.25 0"/>
<feBlend mode="normal" in2="BackgroundImageFix" result="effect1_dropShadow_628_902"/>
<feBlend mode="normal" in="SourceGraphic" in2="effect1_dropShadow_628_902" result="shape"/>
</filter>
</defs>
</svg>
