<svg width="159" height="52" viewBox="0 0 159 52" fill="none" xmlns="http://www.w3.org/2000/svg">
<path d="M1.27722 39.5116V17.0886H4.94992V39.5161H1.27722V39.5116Z" fill="#283149"/>
<path d="M22.951 30.9295C22.951 35.6499 19.3535 39.4938 14.9294 39.4938C10.5054 39.4938 6.90784 35.6543 6.90784 30.9295C6.90784 26.2046 10.5054 22.3651 14.9294 22.3651C19.3535 22.3651 22.951 26.2046 22.951 30.9295ZM19.243 30.9295C19.243 28.2645 17.3072 26.0979 14.9294 26.0979C12.5517 26.0979 10.6159 28.2645 10.6159 30.9295C10.6159 33.5944 12.5517 35.7611 14.9294 35.7611C17.3072 35.7611 19.243 33.5944 19.243 30.9295Z" fill="#283149"/>
<path d="M36.1568 33.0161H40.0063C39.2108 36.8422 36.0022 39.7074 32.1792 39.7074C27.7552 39.7074 24.1576 35.8679 24.1576 31.1475C24.1576 26.4271 27.7552 22.5832 32.1792 22.5832C36.0022 22.5832 39.2108 25.4572 40.0063 29.2834H36.1568C35.5027 27.5394 33.9647 26.3159 32.1792 26.3159C29.8014 26.3159 27.8656 28.487 27.8656 31.1475C27.8656 33.808 29.8014 35.9747 32.1792 35.9747C33.9647 35.9747 35.5027 34.7512 36.1568 33.0116V33.0161Z" fill="#283149"/>
<path d="M50.6354 29.7194L57.2869 39.5161H52.7701L47.9262 32.3042L45.5882 34.5287V39.5161H41.9155V17.0886H45.5882V29.9151L53.6717 22.2984L58.3167 22.3562L50.6398 29.7194H50.6354Z" fill="#283149"/>
<path d="M111.608 30.9518C111.608 35.6722 108.011 39.5117 103.587 39.5117C102.159 39.5117 100.811 39.1157 99.6446 38.4127V45.0106H95.9763V22.8857H99.6446V23.4952C100.811 22.7923 102.159 22.3874 103.587 22.3874C108.011 22.3874 111.608 26.2314 111.608 30.9518ZM107.9 30.9518C107.9 30.9518 107.9 30.9429 107.9 30.9384C107.892 28.3758 106.186 26.2892 104.029 26.1335C103.945 26.129 103.861 26.1201 103.777 26.1201C103.75 26.1201 103.724 26.1201 103.697 26.1246C103.662 26.1246 103.627 26.1246 103.591 26.1246C103.516 26.1246 103.441 26.1424 103.366 26.1468C103.357 26.1468 103.353 26.1468 103.348 26.1468C102.553 26.2269 101.903 26.5517 101.382 27.0233C100.334 27.8997 99.6534 29.3323 99.6534 30.9518C99.6534 30.9562 99.6534 30.9651 99.6534 30.9696C99.6534 30.974 99.6534 30.9829 99.6534 30.9874C99.6534 31.1075 99.6579 31.2365 99.6711 31.3744C99.6755 31.4412 99.6844 31.5079 99.6888 31.5702C99.6932 31.6102 99.6976 31.6547 99.7065 31.6947C99.7639 32.1396 99.8744 32.5623 100.029 32.9538C100.445 34.0661 101.249 35.1694 102.654 35.5965C102.95 35.6944 103.255 35.7522 103.574 35.77C103.582 35.77 103.587 35.77 103.596 35.77C103.609 35.77 103.618 35.77 103.631 35.77C103.68 35.77 103.733 35.7789 103.781 35.7789C103.821 35.7789 103.856 35.7745 103.892 35.77C103.993 35.77 104.091 35.7611 104.188 35.7522C104.197 35.7522 104.206 35.7522 104.214 35.7522C104.763 35.69 105.28 35.4986 105.744 35.1961C105.752 35.1961 105.757 35.1872 105.761 35.1828C105.859 35.116 105.956 35.0493 106.053 34.9781C106.128 34.9203 106.199 34.858 106.27 34.7913C106.292 34.769 106.318 34.7468 106.345 34.7245C107.295 33.8392 107.909 32.4733 107.909 30.9384L107.9 30.9518Z" fill="#283149"/>
<path d="M125.703 27.1256V39.178H121.995V38.4661C120.629 39.3559 119.268 39.4894 118.6 39.4894C115.317 39.4894 112.647 36.8022 112.647 33.4966C112.647 30.191 115.317 27.5038 118.6 27.5038H121.995V27.1301C121.995 26.5606 121.531 26.0934 120.965 26.0934H118.6V22.3607H120.965C123.577 22.3607 125.703 24.5007 125.703 27.1301V27.1256ZM121.924 31.232H118.605C117.367 31.232 116.36 32.2464 116.36 33.4966C116.36 34.7468 117.367 35.7611 118.605 35.7611C120.832 35.7611 121.637 33.1629 121.924 31.2365V31.232Z" fill="#283149"/>
<path d="M139.925 37.4473C139.054 38.3905 137.397 39.5206 134.476 39.5206C131.842 39.5206 130.259 38.4839 129.411 37.603C128.288 36.4596 127.656 34.8491 127.674 33.1852L131.126 33.2297C131.126 33.5767 131.187 34.4665 131.868 35.1561C132.443 35.7389 133.322 36.0414 134.476 36.0414C136.266 36.0414 137.101 35.4631 137.485 34.9781C137.72 34.68 137.622 34.244 137.286 34.0705C136.46 33.6434 134.953 33.2074 134.038 32.9405L133.402 32.7581C130.423 31.8816 127.674 30.6492 127.674 27.5839C127.669 26.4716 128.2 25.3015 129.128 24.3672C130.387 23.1037 132.253 22.4097 134.378 22.4097H134.405C136.699 22.4141 138.471 23.0993 139.682 24.4562C141.096 26.0401 141.216 27.9843 141.193 28.7717V29.1677H137.733V28.7629C137.733 28.7629 137.821 27.5572 137.092 26.7608C136.566 26.1824 135.66 25.8843 134.396 25.8843H134.378C131.943 25.8843 131.377 27.219 131.426 27.5839C131.475 27.9442 131.461 28.5537 134.374 29.4169L134.993 29.5993C137.835 30.4223 141.052 31.3477 141.26 34.115C141.322 34.9692 141.008 36.2906 139.929 37.4473H139.925Z" fill="#283149"/>
<path d="M155.071 37.4473C154.2 38.3905 152.543 39.5206 149.622 39.5206C146.988 39.5206 145.405 38.4839 144.557 37.603C143.434 36.4596 142.802 34.8491 142.82 33.1852L146.272 33.2297C146.272 33.5767 146.333 34.4665 147.014 35.1561C147.589 35.7389 148.468 36.0414 149.622 36.0414C151.412 36.0414 152.247 35.4631 152.631 34.9781C152.866 34.68 152.768 34.244 152.432 34.0705C151.606 33.6434 150.099 33.2074 149.184 32.9405L148.548 32.7581C145.569 31.8816 142.82 30.6492 142.82 27.5839C142.815 26.4716 143.346 25.3015 144.274 24.3672C145.533 23.1037 147.399 22.4097 149.524 22.4097H149.551C151.845 22.4141 153.617 23.0993 154.828 24.4562C156.242 26.0401 156.362 27.9843 156.339 28.7717V29.1677H152.879V28.7629C152.879 28.7629 152.967 27.5572 152.238 26.7608C151.712 26.1824 150.806 25.8843 149.542 25.8843H149.524C147.089 25.8843 146.523 27.219 146.572 27.5839C146.621 27.9442 146.607 28.5537 149.52 29.4169L150.139 29.5993C152.981 30.4223 156.198 31.3477 156.406 34.115C156.468 34.9692 156.154 36.2906 155.075 37.4473H155.071Z" fill="#283149"/>
<path d="M88.2376 18.0585V12.8888C88.2376 6.53114 83.102 1.36139 76.7864 1.36139C70.4707 1.36139 65.3351 6.53114 65.3351 12.8888V18.0585C61.5254 21.3241 59.1079 26.1824 59.1079 31.6102C59.1079 41.4381 67.0234 49.4062 76.7864 49.4062C86.5493 49.4062 94.4648 41.4381 94.4648 31.6102C94.4648 26.1824 92.0473 21.3196 88.2376 18.0585ZM67.9869 12.8888C67.9869 8.00376 71.9336 4.03079 76.7864 4.03079C81.6391 4.03079 85.5858 8.00376 85.5858 12.8888V16.1766C82.9959 14.6773 79.9906 13.8142 76.7864 13.8142C73.5821 13.8142 70.5812 14.6773 67.9869 16.1766V12.8888ZM76.7864 46.7368C68.4863 46.7368 61.7597 39.9654 61.7597 31.6102C61.7597 23.255 68.4863 16.4836 76.7864 16.4836C85.0864 16.4836 91.813 23.255 91.813 31.6102C91.813 39.9654 85.0864 46.7368 76.7864 46.7368Z" fill="#404B69"/>
<path d="M76.7863 43.6581C83.3938 43.6581 88.7502 38.2661 88.7502 31.6146C88.7502 24.9632 83.3938 19.5712 76.7863 19.5712C70.1788 19.5712 64.8224 24.9632 64.8224 31.6146C64.8224 38.2661 70.1788 43.6581 76.7863 43.6581Z" fill="#00818A"/>
<g filter="url(#filter0_d_1167_1359)">
<path d="M79.1375 34.4263V32.7001C78.9431 32.1973 78.7442 31.6901 78.5674 31.2497V34.4263C78.5674 34.6665 78.479 34.8756 78.3022 35.0536C78.1255 35.2315 77.9133 35.3205 77.6658 35.3205C77.4183 35.3205 77.2062 35.2315 77.0338 35.0536C76.8615 34.8756 76.7731 34.6665 76.7731 34.4263V30.8537C76.7731 30.5067 76.6537 30.2086 76.4151 29.9684C76.1764 29.7281 75.8847 29.608 75.5356 29.608C75.1864 29.608 74.8947 29.7281 74.6561 29.9684C74.4174 30.2086 74.2981 30.5022 74.2981 30.8537V34.4263C74.2981 34.6665 74.2097 34.8756 74.0329 35.0536C73.8561 35.2315 73.6484 35.3205 73.4097 35.3205C73.1711 35.3205 72.9501 35.2315 72.7733 35.0536C72.5965 34.8756 72.5081 34.6665 72.5081 34.4263V30.8537C72.5081 30.5067 72.3888 30.2086 72.1501 29.9684C71.9115 29.7281 71.6198 29.608 71.2706 29.608C70.9215 29.608 70.6298 29.7281 70.3911 29.9684C70.1525 30.2086 70.0331 30.5022 70.0331 30.8537V34.4263C70.0331 34.6665 69.9448 34.8756 69.7724 35.0536C69.6 35.2315 69.3879 35.3205 69.1404 35.3205C68.8929 35.3205 68.6807 35.2315 68.504 35.0536C68.3272 34.8756 68.2388 34.6665 68.2388 34.4263V29.0074C68.2388 28.7671 68.3272 28.558 68.504 28.3801C68.6807 28.2021 68.8929 28.1131 69.1404 28.1131C69.3879 28.1131 69.6 28.2021 69.7724 28.3801C69.9448 28.558 70.0331 28.7671 70.0331 29.0074C70.1083 28.9228 70.2011 28.8294 70.316 28.7271C70.4309 28.6248 70.5723 28.5269 70.7359 28.4335C70.8994 28.34 71.0939 28.2644 71.3104 28.2021C71.527 28.1398 71.7745 28.1087 72.0485 28.1087C72.3711 28.1087 72.6407 28.1398 72.8573 28.2066C73.0738 28.2733 73.2639 28.3578 73.4186 28.4601C73.5733 28.5625 73.7058 28.6781 73.8163 28.8072C73.9224 28.9362 74.0241 29.0652 74.1125 29.1987C74.1876 29.083 74.2804 28.9584 74.3953 28.8294C74.5102 28.7004 74.6605 28.5803 74.8461 28.4735C75.0317 28.3667 75.2571 28.2777 75.5223 28.2066C75.7875 28.1354 76.1057 28.0998 76.4858 28.0998C76.6758 28.0998 76.8924 28.1309 77.1355 28.1932C77.3785 28.2555 77.6039 28.3578 77.8161 28.5002C77.8559 28.5269 77.8912 28.5536 77.931 28.5847C77.9443 28.518 77.9619 28.4557 77.9796 28.389C78.0194 28.2644 78.068 28.1398 78.1299 28.0241C77.8691 27.8462 77.5818 27.7216 77.2769 27.6415C76.9896 27.5659 76.7244 27.5303 76.4858 27.5303C76.0615 27.5303 75.6858 27.5703 75.3765 27.6549C75.0671 27.7394 74.7931 27.8462 74.5633 27.9797C74.3953 28.0775 74.2495 28.1843 74.1213 28.3C74.0064 28.1843 73.8738 28.0775 73.7279 27.9797C73.5246 27.8462 73.286 27.735 73.0164 27.6549C72.7424 27.5703 72.4242 27.5303 72.0397 27.5303C71.717 27.5303 71.4165 27.5703 71.1469 27.646C70.8861 27.7216 70.6563 27.815 70.453 27.9263C70.3779 27.9663 70.3072 28.0108 70.2409 28.0553C70.2188 28.0286 70.1923 28.0019 70.1657 27.9752C69.8873 27.686 69.5293 27.5348 69.1271 27.5348C68.7249 27.5348 68.3714 27.686 68.0885 27.9708C67.8057 28.2555 67.6554 28.6114 67.6554 29.0029V34.4218C67.6554 34.8133 67.8057 35.1693 68.0885 35.454C68.3714 35.7387 68.7294 35.89 69.1271 35.89C69.5249 35.89 69.8873 35.7387 70.1657 35.4495C70.4397 35.1648 70.5856 34.8089 70.5856 34.4218V30.8493C70.5856 30.6535 70.6431 30.5022 70.7801 30.3688C70.9171 30.2353 71.0585 30.173 71.2574 30.173C71.4563 30.173 71.6021 30.2309 71.7347 30.3688C71.8673 30.5022 71.9247 30.6491 71.9247 30.8493V34.4218C71.9247 34.8133 72.075 35.1693 72.3579 35.454C72.6407 35.7387 72.9987 35.89 73.3965 35.89C73.7942 35.89 74.139 35.7387 74.4218 35.454C74.7047 35.1693 74.8549 34.8133 74.8549 34.4218V30.8493C74.8549 30.6535 74.9124 30.5022 75.0494 30.3688C75.1864 30.2353 75.3278 30.173 75.5267 30.173C75.7256 30.173 75.8715 30.2309 76.004 30.3688C76.1366 30.5022 76.1941 30.6491 76.1941 30.8493V34.4218C76.1941 34.8089 76.3399 35.1648 76.614 35.4495C76.8924 35.7387 77.2504 35.89 77.6526 35.89C78.0547 35.89 78.4083 35.7387 78.6912 35.454C78.974 35.1693 79.1243 34.8133 79.1243 34.4218L79.1375 34.4263Z" fill="#DBEDF3"/>
<path d="M84.3703 28.1133C84.6178 28.1133 84.8388 28.1978 85.0377 28.3624C85.2366 28.527 85.3338 28.7539 85.3338 29.0342C85.3338 29.1187 85.3205 29.1944 85.2984 29.27L83.0223 36.4196C82.9074 36.7666 82.766 37.0424 82.5936 37.2426C82.4257 37.4428 82.2401 37.5941 82.0412 37.7053C81.8423 37.8121 81.6346 37.8833 81.418 37.91C81.2015 37.9411 80.9893 37.9545 80.7948 37.9545H80.1496C79.9949 37.9545 79.8535 37.9233 79.7341 37.8655C79.6148 37.8077 79.5132 37.732 79.4248 37.643C79.3364 37.5496 79.2701 37.4517 79.2259 37.3361C79.1817 37.2248 79.1596 37.1092 79.1596 36.9935C79.1596 36.8289 79.2126 36.6865 79.3143 36.5708C79.4159 36.4552 79.5795 36.3973 79.8049 36.3973C80.0303 36.3973 80.2247 36.3973 80.4192 36.384C80.6136 36.3751 80.786 36.3484 80.9319 36.295C81.0821 36.246 81.197 36.1704 81.2854 36.0636C81.3738 35.9613 81.4136 35.8145 81.4136 35.6232C81.4136 35.5075 81.3959 35.3785 81.365 35.2361C81.334 35.0938 81.2766 34.9291 81.2059 34.7378L79.1419 29.4569C79.0933 29.3323 79.0668 29.1988 79.0668 29.0565C79.0668 28.9586 79.0845 28.8518 79.1154 28.745C79.1463 28.6382 79.1994 28.5359 79.2701 28.4469C79.3408 28.3535 79.4336 28.2779 79.5529 28.2156C79.6723 28.1533 79.8181 28.1222 79.9905 28.1222C80.1628 28.1222 80.3396 28.1711 80.4987 28.2645C80.6534 28.358 80.7639 28.5003 80.8214 28.6827L82.3417 33.4165L83.5306 28.6961C83.5792 28.5048 83.6853 28.358 83.8444 28.2601C84.0035 28.1622 84.1803 28.1088 84.3703 28.1088M84.3703 27.5349C84.0742 27.5349 83.7958 27.615 83.5483 27.7707C83.2654 27.9486 83.0665 28.2156 82.9826 28.5493L82.2798 31.3432L81.365 28.5003C81.2678 28.1889 81.0689 27.9353 80.7993 27.7707C80.5518 27.6194 80.2822 27.5438 79.9993 27.5438C79.7341 27.5438 79.4999 27.5972 79.301 27.6995C79.1066 27.8018 78.9475 27.9309 78.8281 28.0866C78.7176 28.2334 78.6337 28.3936 78.5806 28.5671C78.532 28.7272 78.5055 28.8918 78.5055 29.0476C78.5055 29.2611 78.5453 29.4658 78.6204 29.6571L80.6844 34.9336C80.7462 35.0982 80.7948 35.2406 80.8214 35.3518C80.8435 35.4497 80.8567 35.5342 80.8567 35.6054C80.8567 35.6499 80.8523 35.6766 80.8479 35.6899C80.8258 35.7122 80.7904 35.7255 80.7595 35.7344C80.6623 35.7656 80.5429 35.7878 80.4015 35.7922C80.2159 35.8011 80.017 35.8056 79.8137 35.8056C79.3275 35.8056 79.0491 36.0058 78.8988 36.1704C78.7044 36.3884 78.5983 36.6687 78.5983 36.9757C78.5983 37.167 78.6337 37.3539 78.7088 37.5363C78.7795 37.7142 78.8856 37.8744 79.0226 38.0212C79.1552 38.1636 79.3143 38.2792 79.4955 38.3638C79.6944 38.4572 79.9153 38.5061 80.1584 38.5061H80.8037C81.0247 38.5061 81.2589 38.4884 81.502 38.4572C81.7893 38.4172 82.0633 38.3282 82.324 38.1858C82.5848 38.0434 82.8235 37.8432 83.0356 37.5941C83.2566 37.3361 83.4289 37.0068 83.5704 36.5797C83.5704 36.5797 83.5704 36.5797 83.5704 36.5753L85.8465 29.4302C85.8907 29.2967 85.9128 29.1588 85.9128 29.0164C85.9128 28.5626 85.7404 28.18 85.4133 27.9042C85.1128 27.6506 84.7637 27.5215 84.3836 27.5215L84.3703 27.5349Z" fill="#DBEDF3"/>
</g>
<defs>
<filter id="filter0_d_1167_1359" x="67.6554" y="27.5215" width="21.0473" height="13.7746" filterUnits="userSpaceOnUse" color-interpolation-filters="sRGB">
<feFlood flood-opacity="0" result="BackgroundImageFix"/>
<feColorMatrix in="SourceAlpha" type="matrix" values="0 0 0 0 0 0 0 0 0 0 0 0 0 0 0 0 0 0 127 0" result="hardAlpha"/>
<feOffset dx="1.99" dy="1.99"/>
<feGaussianBlur stdDeviation="0.4"/>
<feColorMatrix type="matrix" values="0 0 0 0 0 0 0 0 0 0 0 0 0 0 0 0 0 0 0.1 0"/>
<feBlend mode="normal" in2="BackgroundImageFix" result="effect1_dropShadow_1167_1359"/>
<feBlend mode="normal" in="SourceGraphic" in2="effect1_dropShadow_1167_1359" result="shape"/>
</filter>
</defs>
</svg>
