<svg width="219" height="232" viewBox="0 0 219 232" fill="none" xmlns="http://www.w3.org/2000/svg">
<g filter="url(#filter0_i_698_2144)">
<path d="M205.115 180.56C205.665 179.224 206.101 177.834 206.415 176.401L205.927 176.294C206.078 175.602 206.2 174.899 206.292 174.188L206.617 171.676L207.112 171.74L207.761 166.716L207.265 166.652L207.914 161.628L208.409 161.692L209.058 156.668L208.562 156.604L209.211 151.58L209.707 151.644L210.355 146.62L209.859 146.556L210.508 141.532L211.004 141.596L211.652 136.572L211.156 136.508L211.805 131.483L212.301 131.547L212.949 126.523L212.453 126.459L213.102 121.435L213.598 121.499L214.246 116.475L213.75 116.411L214.399 111.387L214.895 111.451L215.543 106.427L215.047 106.363L215.696 101.339L216.192 101.403L216.84 96.3792L216.344 96.3152L216.993 91.2911L217.489 91.3551L218.137 86.3311L217.641 86.2671L217.966 83.7551C218.057 83.044 218.118 82.3333 218.147 81.6249L218.646 81.6455C218.707 80.1803 218.638 78.7243 218.446 77.2927L217.95 77.3592C217.76 75.9407 217.446 74.5466 217.015 73.1922L217.491 73.0406C217.05 71.6539 216.489 70.308 215.813 69.0188L215.37 69.2508C214.711 67.9917 213.941 66.7878 213.067 65.6545L213.463 65.3491C212.581 64.2053 211.595 63.1319 210.511 62.1441L210.174 62.5136C209.65 62.036 209.103 61.5788 208.533 61.1438L206.519 59.6069L206.823 59.2095L202.796 56.1358L202.493 56.5333L198.466 53.4596L198.769 53.0622L194.743 49.9885L194.439 50.3859L190.413 47.3123L190.716 46.9148L186.689 43.8412L186.386 44.2386L182.359 41.165L182.663 40.7675L178.636 37.6939L178.333 38.0913L174.306 35.0177L174.609 34.6202L170.583 31.5466L170.279 31.944L166.253 28.8703L166.556 28.4729L162.529 25.3992L162.226 25.7967L158.199 22.723L158.503 22.3256L154.476 19.2519L154.172 19.6494L150.146 16.5757L150.449 16.1783L146.422 13.1046L146.119 13.502L142.092 10.4284L142.396 10.0309L138.369 6.95729L138.066 7.35473L136.052 5.8179C135.482 5.38287 134.897 4.97546 134.298 4.59593L134.566 4.1736C133.327 3.3886 132.032 2.72038 130.696 2.17105L130.506 2.63348C129.182 2.08919 127.818 1.66398 126.429 1.35999L126.536 0.871565C125.115 0.560315 123.668 0.37362 122.214 0.313678L122.194 0.813253C120.774 0.754709 119.346 0.819536 117.928 1.00985L117.861 0.514291C116.429 0.70637 115.007 1.02372 113.609 1.46844L113.761 1.94489C113.085 2.15991 112.416 2.40531 111.754 2.68137L109.416 3.65656L109.224 3.19511L104.549 5.14549L104.741 5.60695L100.066 7.55733L99.8734 7.09588L95.1982 9.04627L95.3907 9.50772L90.7155 11.4581L90.523 10.9967L85.8478 12.947L86.0403 13.4085L81.3651 15.3589L81.1726 14.8974L76.4974 16.8478L76.6899 17.3093L72.0147 19.2596L71.8222 18.7982L67.147 20.7486L67.3395 21.21L62.6642 23.1604L62.4717 22.699L57.7965 24.6494L57.989 25.1108L53.3138 27.0612L53.1213 26.5997L48.4461 28.5501L48.6386 29.0116L43.9634 30.962L43.7709 30.5005L39.0957 32.4509L39.2882 32.9124L34.613 34.8627L34.4205 34.4013L29.7453 36.3517L29.9378 36.8131L27.6002 37.7883C26.9385 38.0644 26.2929 38.3676 25.6648 38.6965L25.4329 38.2535C24.1337 38.9338 22.9073 39.7216 21.7636 40.6039L22.069 40.9997C20.9358 41.874 19.8854 42.8429 18.9279 43.8932L18.5584 43.5564C17.5781 44.6319 16.6932 45.7911 15.9143 47.0203L16.3367 47.288C15.5759 48.4885 14.9183 49.7572 14.3739 51.0808L13.9115 50.8906C13.362 52.2265 12.9255 53.6173 12.6119 55.0499L13.1003 55.1568C12.9487 55.8494 12.8264 56.552 12.7346 57.2631L12.4104 59.7751L11.9145 59.7111L11.266 64.7352L11.7619 64.7992L11.1133 69.8232L10.6175 69.7592L9.96893 74.7832L10.4648 74.8472L9.8163 79.8713L9.32041 79.8073L8.67189 84.8313L9.16777 84.8953L8.51925 89.9194L8.02337 89.8554L7.37485 94.8794L7.87073 94.9434L7.22221 99.9675L6.72632 99.9035L6.0778 104.927L6.57369 104.992L5.92517 110.016L5.42928 109.952L4.78076 114.976L5.27665 115.04L4.62812 120.064L4.13224 120L3.48372 125.024L3.9796 125.088L3.33108 130.112L2.83519 130.048L2.18667 135.072L2.68256 135.136L2.03404 140.16L1.53815 140.096L0.889628 145.12L1.38551 145.184L1.06125 147.696C0.969464 148.407 0.909318 149.118 0.880078 149.826L0.380499 149.805C0.320014 151.271 0.389049 152.727 0.581297 154.158L1.07685 154.092C1.26732 155.51 1.58123 156.904 2.01216 158.259L1.5357 158.41C1.97694 159.797 2.5384 161.143 3.2135 162.432L3.65644 162.2C4.31577 163.459 5.08569 164.663 5.95976 165.796L5.56385 166.102C6.44602 167.246 7.4322 168.319 8.51605 169.307L8.85286 168.937C9.37687 169.415 9.92422 169.872 10.4941 170.307L12.5075 171.844L12.2041 172.241L16.2308 175.315L16.5342 174.918L20.5609 177.991L20.2575 178.389L24.2842 181.462L24.5876 181.065L28.6142 184.139L28.3109 184.536L32.3376 187.61L32.6409 187.212L36.6676 190.286L36.3642 190.683L40.3909 193.757L40.6943 193.36L44.721 196.433L44.4176 196.831L48.4443 199.904L48.7477 199.507L52.7744 202.581L52.471 202.978L56.4977 206.052L56.8011 205.654L60.8278 208.728L60.5244 209.125L64.5511 212.199L64.8544 211.802L68.8811 214.875L68.5778 215.273L72.6044 218.346L72.9078 217.949L76.9345 221.023L76.6311 221.42L80.6578 224.494L80.9612 224.096L82.9745 225.633C83.5445 226.068 84.1298 226.475 84.7287 226.855L84.4611 227.277C85.6997 228.062 86.9952 228.731 88.3312 229.28L88.5213 228.817C89.845 229.362 91.2093 229.787 92.5977 230.091L92.4907 230.579C93.9123 230.891 95.3586 231.077 96.8126 231.137L96.8332 230.638C98.2533 230.696 99.6809 230.631 101.099 230.441L101.166 230.937C102.598 230.745 104.02 230.427 105.418 229.983L105.266 229.506C105.942 229.291 106.611 229.046 107.273 228.77L109.611 227.794L109.803 228.256L114.478 226.305L114.286 225.844L118.961 223.894L119.154 224.355L123.829 222.405L123.636 221.943L128.311 219.993L128.504 220.454L133.179 218.504L132.987 218.042L137.662 216.092L137.854 216.554L142.53 214.603L142.337 214.142L147.012 212.191L147.205 212.653L151.88 210.702L151.687 210.241L156.363 208.291L156.555 208.752L161.23 206.802L161.038 206.34L165.713 204.39L165.906 204.851L170.581 202.901L170.388 202.439L175.064 200.489L175.256 200.95L179.931 199L179.739 198.539L184.414 196.588L184.606 197.05L189.282 195.099L189.089 194.638L191.427 193.663C192.088 193.387 192.734 193.083 193.362 192.754L193.594 193.197C194.893 192.517 196.12 191.729 197.263 190.847L196.958 190.451C198.091 189.577 199.142 188.608 200.099 187.558L200.469 187.895C201.449 186.819 202.334 185.66 203.113 184.431L202.69 184.163C203.451 182.962 204.109 181.694 204.653 180.37L205.115 180.56Z" stroke="url(#paint0_linear_698_2144)" stroke-dasharray="5 5"/>
</g>
<defs>
<filter id="filter0_i_698_2144" x="0.359375" y="0.29248" width="233.309" height="245.866" filterUnits="userSpaceOnUse" color-interpolation-filters="sRGB">
<feFlood flood-opacity="0" result="BackgroundImageFix"/>
<feBlend mode="normal" in="SourceGraphic" in2="BackgroundImageFix" result="shape"/>
<feColorMatrix in="SourceAlpha" type="matrix" values="0 0 0 0 0 0 0 0 0 0 0 0 0 0 0 0 0 0 127 0" result="hardAlpha"/>
<feOffset dx="15" dy="15"/>
<feGaussianBlur stdDeviation="7.5"/>
<feComposite in2="hardAlpha" operator="arithmetic" k2="-1" k3="1"/>
<feColorMatrix type="matrix" values="0 0 0 0 0 0 0 0 0 0 0 0 0 0 0 0 0 0 0.1 0"/>
<feBlend mode="normal" in2="shape" result="effect1_innerShadow_698_2144"/>
</filter>
<linearGradient id="paint0_linear_698_2144" x1="67.2211" y1="79.9871" x2="232.791" y2="205.299" gradientUnits="userSpaceOnUse">
<stop stop-color="#404B69"/>
<stop offset="1" stop-color="#7E94CF" stop-opacity="0.25"/>
</linearGradient>
</defs>
</svg>
