<svg width="102" height="101" viewBox="0 0 102 101" fill="none" xmlns="http://www.w3.org/2000/svg">
<g filter="url(#filter0_i_698_2145)">
<path d="M68.1404 98.4948C69.7224 97.7854 71.2182 96.8676 72.5846 95.7545L72.2687 95.3668C72.9236 94.8334 73.5479 94.2539 74.1369 93.6298L75.9346 91.7247L76.2983 92.0679L79.8938 88.2577L79.5302 87.9145L83.1257 84.1043L83.4894 84.4475L87.0849 80.6373L86.7213 80.2941L90.3168 76.4839L90.6804 76.8271L94.276 73.0169L93.9123 72.6737L95.7101 70.7686C96.299 70.1445 96.8414 69.4876 97.336 68.803L97.7413 69.0958C98.7734 67.6673 99.603 66.1208 100.22 64.5005L99.7523 64.3226C100.358 62.7301 100.753 61.0644 100.927 59.3693L101.424 59.4202C101.601 57.6956 101.554 55.9413 101.273 54.2014L100.78 54.281C100.645 53.4472 100.455 52.6168 100.209 51.7947L99.4583 49.2852L99.9373 49.1419L98.4353 44.123L97.9563 44.2663L96.4543 39.2474L96.9334 39.104L95.4314 34.0851L94.9524 34.2284L93.4504 29.2095L93.9294 29.0662L92.4275 24.0472L91.9485 24.1906L91.1975 21.6811C90.9515 20.859 90.6538 20.0609 90.3082 19.2902L90.7644 19.0857C90.0433 17.4775 89.1188 15.9859 88.0238 14.6417L87.6362 14.9575C86.56 13.6365 85.3149 12.4615 83.9337 11.4637L84.2265 11.0584C82.8212 10.0431 81.2786 9.20657 79.6313 8.5798L79.4535 9.04712C78.6642 8.74676 77.8501 8.49579 77.0152 8.29781L74.4664 7.69345L74.5818 7.20693L69.4843 5.9982L69.3689 6.48471L64.2714 5.27598L64.3868 4.78947L59.2893 3.58074L59.1739 4.06725L54.0764 2.85852L54.1918 2.37201L49.0943 1.16328L48.9789 1.64979L46.4301 1.04543C45.5952 0.847442 44.7551 0.706191 43.915 0.620144L43.9659 0.122743C42.2126 -0.0568138 40.4586 -0.0020158 38.7471 0.274184L38.8267 0.767797C37.1445 1.03926 35.5045 1.53007 33.9497 2.22728L33.7451 1.77106C32.1632 2.48045 30.6674 3.3982 29.301 4.51134L29.6168 4.89898C28.962 5.43243 28.3376 6.01192 27.7487 6.63601L25.9509 8.54111L25.5873 8.19795L21.9918 12.0082L22.3554 12.3513L18.7599 16.1615L18.3962 15.8184L14.8007 19.6286L15.1643 19.9717L11.5688 23.7819L11.2051 23.4388L7.60958 27.249L7.97322 27.5921L6.17545 29.4972C5.58653 30.1213 5.04417 30.7782 4.54955 31.4628L4.14426 31.17C3.11214 32.5986 2.28257 34.145 1.66599 35.7654L2.1333 35.9432C1.52731 37.5357 1.13233 39.2015 0.958749 40.8965L0.461358 40.8456C0.284759 42.5703 0.331646 44.3245 0.612457 46.0644L1.10607 45.9848C1.24064 46.8186 1.43031 47.649 1.67632 48.4711L2.4273 50.9806L1.94829 51.1239L3.45026 56.1429L3.92927 55.9995L5.43123 61.0184L4.95222 61.1618L6.45418 66.1807L6.93319 66.0374L8.43515 71.0563L7.95614 71.1997L9.4581 76.2186L9.93711 76.0753L10.6881 78.5847C10.9341 79.4068 11.2318 80.2049 11.5774 80.9756L11.1212 81.1802C11.8423 82.7883 12.7668 84.2799 13.8617 85.6241L14.2494 85.3083C15.3255 86.6294 16.5706 87.8043 17.9518 88.8022L17.659 89.2075C19.0643 90.2227 20.607 91.0593 22.2542 91.686L22.432 91.2187C23.2214 91.5191 24.0355 91.77 24.8704 91.968L27.4191 92.5724L27.3038 93.0589L32.4013 94.2676L32.5167 93.7811L37.6142 94.9898L37.4988 95.4764L42.5963 96.6851L42.7117 96.1986L47.8092 97.4073L47.6938 97.8938L52.7913 99.1025L52.9067 98.616L55.4554 99.2204C56.2904 99.4184 57.1304 99.5596 57.9706 99.6457L57.9197 100.143C59.6729 100.323 61.427 100.268 63.1385 99.9916L63.0589 99.498C64.741 99.2266 66.3811 98.7358 67.9359 98.0385L68.1404 98.4948Z" stroke="url(#paint0_linear_698_2145)" stroke-dasharray="5 5"/>
</g>
<defs>
<filter id="filter0_i_698_2145" x="0.355469" y="0.0187988" width="116.172" height="115.228" filterUnits="userSpaceOnUse" color-interpolation-filters="sRGB">
<feFlood flood-opacity="0" result="BackgroundImageFix"/>
<feBlend mode="normal" in="SourceGraphic" in2="BackgroundImageFix" result="shape"/>
<feColorMatrix in="SourceAlpha" type="matrix" values="0 0 0 0 0 0 0 0 0 0 0 0 0 0 0 0 0 0 127 0" result="hardAlpha"/>
<feOffset dx="15" dy="15"/>
<feGaussianBlur stdDeviation="7.5"/>
<feComposite in2="hardAlpha" operator="arithmetic" k2="-1" k3="1"/>
<feColorMatrix type="matrix" values="0 0 0 0 0 0 0 0 0 0 0 0 0 0 0 0 0 0 0.1 0"/>
<feBlend mode="normal" in2="shape" result="effect1_innerShadow_698_2145"/>
</filter>
<linearGradient id="paint0_linear_698_2145" x1="44.9367" y1="25.7113" x2="72.346" y2="115.953" gradientUnits="userSpaceOnUse">
<stop stop-color="#404B69"/>
<stop offset="1" stop-color="#7E94CF" stop-opacity="0.25"/>
</linearGradient>
</defs>
</svg>
