<svg width="16" height="9" viewBox="0 0 16 9" fill="none" xmlns="http://www.w3.org/2000/svg">
<g clip-path="url(#clip0_529_7085)">
<path d="M12.1042 2.70236C12.1042 2.70236 12.125 2.67807 12.1354 2.66419L13.2946 0.71717C13.364 0.599169 13.3259 0.442992 13.2079 0.373579C13.0899 0.304167 12.9337 0.342344 12.8643 0.460345L11.7051 2.40736C11.6877 2.43512 11.6773 2.46636 11.6738 2.4976C10.6917 2.06724 9.588 1.8243 8.42535 1.8243C7.26269 1.8243 6.15903 2.06724 5.17685 2.4976C5.17338 2.46636 5.16297 2.43512 5.14561 2.40736L3.97949 0.456874C3.91007 0.338873 3.7539 0.297226 3.6359 0.370109C3.5179 0.439521 3.47625 0.595699 3.54913 0.7137L4.70832 2.66071C4.70832 2.66071 4.72567 2.68848 4.73955 2.69889C2.45936 3.87543 0.921875 6.10704 0.921875 8.66488H15.9219C15.9219 6.10704 14.3844 3.87543 12.1042 2.70236ZM4.97555 6.44716C4.6389 6.44716 4.36473 6.17298 4.36473 5.83633C4.36473 5.49968 4.6389 5.2255 4.97555 5.2255C5.3122 5.2255 5.58638 5.49968 5.58638 5.83633C5.58638 6.17298 5.3122 6.44716 4.97555 6.44716ZM11.8855 6.44716C11.5489 6.44716 11.2747 6.17298 11.2747 5.83633C11.2747 5.49968 11.5489 5.2255 11.8855 5.2255C12.2222 5.2255 12.4964 5.49968 12.4964 5.83633C12.4964 6.17298 12.2222 6.44716 11.8855 6.44716Z" fill="#404B69"/>
</g>
<defs>
<clipPath id="clip0_529_7085">
<rect width="15" height="8.32948" fill="white" transform="translate(0.921875 0.335449)"/>
</clipPath>
</defs>
</svg>
