<svg width="16" height="15" viewBox="0 0 16 15" fill="none" xmlns="http://www.w3.org/2000/svg">
<path d="M8.42188 13.75C11.8719 13.75 14.6719 10.95 14.6719 7.5C14.6719 4.05 11.8719 1.25 8.42188 1.25C4.97188 1.25 2.17188 4.05 2.17188 7.5C2.17188 10.95 4.97188 13.75 8.42188 13.75Z" stroke="#404B69" stroke-width="1.5" stroke-linecap="round" stroke-linejoin="round"/>
<path d="M8.42188 10C9.80313 10 10.9219 8.88125 10.9219 7.5C10.9219 6.11875 9.80313 5 8.42188 5C7.04062 5 5.92188 6.11875 5.92188 7.5C5.92188 8.88125 7.04062 10 8.42188 10Z" stroke="#404B69" stroke-width="1.5" stroke-linecap="round" stroke-linejoin="round"/>
<path d="M14.1531 4.9998C12.2656 4.5873 10.3094 4.5873 8.42188 4.9998" stroke="#404B69" stroke-width="1.5" stroke-linecap="round" stroke-linejoin="round"/>
<path d="M3.39062 3.7876L3.40312 3.8251C4.03437 5.63135 5.00313 7.30635 6.25938 8.7501" stroke="#404B69" stroke-width="1.5" stroke-linecap="round" stroke-linejoin="round"/>
<path d="M7.72266 13.7125C9.01016 12.2938 9.97891 10.6188 10.5664 8.8L10.5852 8.75" stroke="#404B69" stroke-width="1.5" stroke-linecap="round" stroke-linejoin="round"/>
</svg>
