<svg width="16" height="15" viewBox="0 0 16 15" fill="none" xmlns="http://www.w3.org/2000/svg">
<g clip-path="url(#clip0_535_7822)">
<path d="M7.5625 0.0292969C3.43308 0.0292969 0.0917969 3.37113 0.0917969 7.5C0.0917969 11.6294 3.43363 14.9707 7.5625 14.9707C11.6919 14.9707 15.0332 11.6289 15.0332 7.5C15.0332 3.37058 11.6914 0.0292969 7.5625 0.0292969ZM7.5625 14.0918C3.92778 14.0918 0.970703 11.1347 0.970703 7.5C0.970703 3.86528 3.92778 0.908203 7.5625 0.908203C11.1972 0.908203 14.1543 3.86528 14.1543 7.5C14.1543 11.1347 11.1972 14.0918 7.5625 14.0918Z" fill="#404B69"/>
<path d="M10.795 3.68381C5.7172 6.05554 6.01542 5.87036 5.92149 6.07139L3.74631 10.7325C3.66818 10.9 3.70313 11.0984 3.83379 11.2291C3.96466 11.36 4.16327 11.3945 4.33035 11.3166C5.47213 10.7835 8.9652 9.15418 9.00434 9.13438C9.1941 9.03881 9.05769 9.23783 11.3791 4.26785C11.4572 4.10039 11.4222 3.90196 11.2916 3.77129C11.1609 3.64063 10.9625 3.60568 10.795 3.68381ZM5.0538 10.0091L6.45261 7.01165L8.05125 8.61029L5.0538 10.0091Z" fill="#404B69"/>
</g>
<defs>
<clipPath id="clip0_535_7822">
<rect width="15" height="15" fill="white" transform="translate(0.0625)"/>
</clipPath>
</defs>
</svg>
