<svg width="16" height="11" viewBox="0 0 16 11" fill="none" xmlns="http://www.w3.org/2000/svg">
<g clip-path="url(#clip0_529_7077)">
<path d="M6.69324 0.589355C4.66857 0.589355 2.625 2.12675 2.625 5.56417C2.625 9.00159 4.5968 10.4106 6.55348 10.4106C8.51017 10.4106 10.6066 9.10736 10.6066 5.43574C10.6066 2.49316 9.06922 0.589355 6.69324 0.589355ZM6.56859 9.38311C4.40793 9.38311 3.64112 7.29044 3.64112 5.49996C3.64112 3.70948 4.44192 1.6508 6.70458 1.6508C8.82369 1.6508 9.57917 3.6226 9.57917 5.46974C9.57917 7.41509 8.64615 9.37933 6.56481 9.37933L6.56859 9.38311Z" fill="#404B69"/>
<path d="M2.05921 3.25244H1.04688V10.2784H2.05921V3.25244Z" fill="#404B69"/>
<path d="M1.5566 1.0542C1.20909 1.0542 0.925781 1.34506 0.925781 1.70391C0.925781 2.06276 1.19775 2.35362 1.5415 2.35362C1.90412 2.35362 2.17987 2.07409 2.17987 1.70391C2.17987 1.33373 1.9079 1.0542 1.5566 1.0542Z" fill="#404B69"/>
<path d="M13.7157 4.85379L13.6062 4.80091C12.4805 4.26452 11.9365 3.96989 11.9365 3.15775C11.9365 2.56092 12.4049 1.61657 13.659 1.61657C14.2596 1.61657 14.7734 1.80544 14.9169 1.90366L15.2871 2.16429L15.7102 1.23884L15.4533 1.05752C15.136 0.834655 14.5014 0.59668 13.6704 0.59668C12.0574 0.59668 10.8902 1.68457 10.8902 3.18041C10.8902 4.75558 12.2765 5.34863 13.1982 5.74148C14.4447 6.27409 14.9093 6.79915 14.9093 7.67928C14.9093 8.75961 13.9348 9.40177 12.9904 9.40177C12.4314 9.40177 11.759 9.14868 11.385 8.89937L11.0149 8.65007L10.5918 9.59064L10.8298 9.77195C11.2944 10.127 12.1821 10.3839 12.9413 10.3839C14.7016 10.3839 15.933 9.24689 15.933 7.61506C15.933 6.20232 15.1247 5.52995 13.7195 4.84246L13.7157 4.85379Z" fill="#404B69"/>
</g>
<defs>
<clipPath id="clip0_529_7077">
<rect width="15" height="9.8212" fill="white" transform="translate(0.925781 0.589355)"/>
</clipPath>
</defs>
</svg>
