<svg width="16" height="15" viewBox="0 0 16 15" fill="none" xmlns="http://www.w3.org/2000/svg">
<g clip-path="url(#clip0_535_7790)">
<path d="M3.52 8.99906V8.96719C3.40656 8.50219 3.34375 8.01 3.34375 7.5C3.34375 6.99 3.40656 6.49781 3.52 6.03281V6.00094C4.21187 3.02813 6.91281 0.752813 10.2184 0.495C9.39062 0.18 8.49812 0 7.5625 0C3.42719 0 0.0625 3.36469 0.0625 7.5C0.0625 11.6353 3.42719 15 7.5625 15C8.49812 15 9.39062 14.82 10.2175 14.505C6.91281 14.2481 4.21187 11.9719 3.52 8.99906Z" fill="#404B69"/>
<path d="M12.0657 1.51594C11.6691 1.44656 11.2613 1.40625 10.8441 1.40625C9.55414 1.40625 8.35414 1.75875 7.33789 2.35781C7.41289 2.35313 7.48695 2.34375 7.56289 2.34375C9.89258 2.34375 11.7816 4.65188 11.7816 7.5C11.7816 10.3481 9.89258 12.6562 7.56289 12.6562C7.48695 12.6562 7.41289 12.6469 7.33789 12.6422C8.3532 13.2413 9.55414 13.5938 10.8441 13.5938C11.2613 13.5938 11.6691 13.5534 12.0657 13.4841C13.8816 12.1134 15.0629 9.945 15.0629 7.5C15.0629 5.055 13.8816 2.88656 12.0657 1.51594Z" fill="#404B69"/>
</g>
<defs>
<clipPath id="clip0_535_7790">
<rect width="15" height="15" fill="white" transform="translate(0.0625)"/>
</clipPath>
</defs>
</svg>
