<svg width="13" height="15" viewBox="0 0 13 15" fill="none" xmlns="http://www.w3.org/2000/svg">
<g clip-path="url(#clip0_529_7073)">
<path d="M12.4758 11.6876C12.2508 12.2126 11.982 12.6938 11.6695 13.1376C11.2445 13.7438 10.9008 14.1626 10.632 14.3938C10.2195 14.7751 9.77578 14.9688 9.29453 14.9813C8.95078 14.9813 8.53828 14.8813 8.06328 14.6876C7.58203 14.4938 7.13828 14.3938 6.73828 14.3938C6.33828 14.3938 5.85703 14.4938 5.37578 14.6876C4.88828 14.8876 4.49453 14.9876 4.19453 15.0001C3.73828 15.0188 3.28203 14.8188 2.83203 14.3938C2.54453 14.1438 2.18203 13.7063 1.74453 13.0938C1.27578 12.4376 0.894531 11.6751 0.594531 10.8126C0.275781 9.8751 0.113281 8.96885 0.113281 8.09385C0.113281 7.0876 0.332031 6.21885 0.763281 5.49385C1.10703 4.9126 1.55703 4.4501 2.13203 4.1126C2.70078 3.7751 3.31953 3.6001 3.98203 3.59385C4.34453 3.59385 4.81953 3.70635 5.41328 3.9251C6.00078 4.14385 6.38203 4.25635 6.54453 4.25635C6.66953 4.25635 7.08828 4.1251 7.80078 3.8626C8.47578 3.61885 9.04453 3.51885 9.50703 3.55635C10.7695 3.65635 11.7195 4.15635 12.3508 5.0501C11.2195 5.73135 10.6633 6.69385 10.6758 7.91885C10.6883 8.8751 11.032 9.6751 11.7133 10.3063C12.0195 10.6001 12.3695 10.8251 12.7508 10.9876C12.6695 11.2313 12.582 11.4626 12.4883 11.6813L12.4758 11.6876ZM9.58203 0.300098C9.58203 1.0501 9.30703 1.7501 8.76328 2.4001C8.10703 3.16885 7.30703 3.61885 6.44453 3.54385C6.43203 3.45635 6.42578 3.35635 6.42578 3.2626C6.42578 2.54385 6.73828 1.76885 7.29453 1.14385C7.56953 0.825098 7.92578 0.562598 8.35703 0.350098C8.78203 0.143848 9.18828 0.0250977 9.56953 0.00634766C9.58203 0.106348 9.58828 0.206348 9.58828 0.306348L9.58203 0.300098Z" fill="#404B69"/>
</g>
<defs>
<clipPath id="clip0_529_7073">
<rect width="12.6375" height="15" fill="white" transform="translate(0.107422)"/>
</clipPath>
</defs>
</svg>
