<svg width="17" height="15" viewBox="0 0 17 15" fill="none" xmlns="http://www.w3.org/2000/svg">
<g clip-path="url(#clip0_529_7092)">
<path d="M16.27 5.4867C16.191 5.68407 16.129 5.88707 16.05 6.08444C15.9937 5.2555 15.8583 4.43219 15.5933 3.64835C15.4128 3.16339 15.2042 2.67843 14.8433 2.30061C14.894 2.76301 15.0125 3.21414 15.0012 3.68219C14.8997 3.32692 14.7813 2.96602 14.567 2.66151C14.1046 1.94534 13.3546 1.46038 12.5538 1.20098C12.3452 1.13331 12.1252 1.09384 11.9391 0.981059C10.7888 0.310006 9.44666 -0.0227004 8.11584 0.0111342C6.38463 0.0336906 4.68163 0.716021 3.41283 1.88895C3.21546 2.07504 3.03501 2.27805 2.83764 2.46978C2.49366 2.0694 2.31884 1.56189 2.29629 1.03745C1.98614 1.30249 1.80569 1.68595 1.67599 2.06377C1.49554 2.59384 1.39967 3.15775 1.45606 3.71602C1.4617 3.84008 1.49554 3.97542 1.41095 4.08256C0.9711 4.72542 0.615836 5.4585 0.53125 6.24234C0.672227 6.14647 0.807566 6.04497 0.948543 5.9491C0.892152 6.23106 0.813205 6.51301 0.768092 6.80061C0.570724 8.18219 0.824483 9.62016 1.48426 10.8551C2.20606 12.1859 3.3226 13.2856 4.63651 14.0356C6.11396 14.8758 7.87899 15.1859 9.55945 14.9153C11.0256 14.6728 12.4467 14.0299 13.4955 12.9641C14.2399 12.2085 14.8884 11.357 15.3564 10.404C16.1234 8.89271 16.4448 7.16151 16.27 5.4867ZM13.5237 7.65211C13.3715 7.34196 13.2925 6.97542 12.9993 6.76113C13.0726 7.53933 13.1064 8.3288 12.9316 9.09572C12.8245 9.61452 12.5933 10.1164 12.2155 10.4942C12.2831 10.122 12.3452 9.74422 12.3226 9.3664C11.7756 10.1051 11.1158 10.7874 10.2756 11.1878C9.56508 11.5318 8.72486 11.5149 7.9805 11.2837C7.30381 11.0638 6.71734 10.6465 6.19854 10.1728H6.37899C6.88651 10.2066 7.39967 10.1333 7.88463 9.99234C8.3696 9.85136 8.7305 9.49046 9.15343 9.2367C9.3508 9.11828 9.59892 9.16903 9.8132 9.107C9.94854 9.03369 9.99366 8.83632 9.8696 8.72918C9.55381 8.38519 9.09704 8.10888 8.61772 8.16527C8.15531 8.23294 7.77749 8.54873 7.32072 8.65587C6.99366 8.71226 6.66095 8.61076 6.37336 8.46414C5.9617 8.2555 5.65155 7.90587 5.35832 7.56189L5.22862 7.45474C5.22862 7.40399 5.22862 7.3476 5.23426 7.29685C5.26245 7.15587 5.3414 7.03181 5.40907 6.90211L5.48802 6.74422C5.94478 6.77805 6.39591 6.85136 6.8414 6.96414C6.83576 6.54121 6.80757 6.06189 6.54817 5.71226L6.63839 5.64459C6.92599 5.41903 7.19102 5.15399 7.51245 4.97918C7.64215 4.91151 7.76057 4.82128 7.85644 4.71414L7.87899 4.52241H7.87336C7.87899 4.4491 7.86772 4.37016 7.86772 4.29685C7.70982 4.27993 7.55193 4.26865 7.38839 4.26865L6.94854 4.24046C6.91471 4.2179 6.88087 4.19534 6.84704 4.17843C6.54817 3.99234 6.28877 3.74422 6.00681 3.53557L5.89403 3.43407L5.91095 3.28181C6.01809 2.57692 6.53689 2.02429 7.07824 1.60136C6.69478 1.65775 6.31696 1.76489 5.97298 1.93971C5.61208 2.11452 5.30193 2.37956 4.99742 2.63895C4.38275 2.48106 3.72298 2.57692 3.13651 2.80249C2.84892 2.93219 2.58952 3.12392 2.30757 3.27053C2.48802 3.09008 2.69666 2.9491 2.89967 2.79121C3.08012 2.65587 3.21546 2.46978 3.37336 2.31189C4.54629 1.10512 6.18726 0.377676 7.86208 0.293089C8.97298 0.236698 10.1177 0.41151 11.1215 0.902112C10.8508 0.890833 10.5858 0.873916 10.3151 0.879555C10.9185 1.06001 11.6234 1.25174 11.9617 1.8382C11.6516 1.84948 11.3358 1.85512 11.0369 1.95662C11.8997 2.28933 12.7681 2.70098 13.4109 3.38895C13.7944 3.80061 14.0594 4.33632 14.0482 4.91151C13.8452 4.75925 13.6365 4.61828 13.4109 4.5055C13.6534 5.52617 13.8057 6.61452 13.5237 7.65211Z" fill="#404B69"/>
</g>
<defs>
<clipPath id="clip0_529_7092">
<rect width="15.7895" height="15" fill="white" transform="translate(0.525391)"/>
</clipPath>
</defs>
</svg>
