<svg width="16" height="15" viewBox="0 0 16 15" fill="none" xmlns="http://www.w3.org/2000/svg">
<g clip-path="url(#clip0_535_7830)">
<path d="M8.47133 0C8.49383 0 8.51695 0 8.53945 0.000625C10.382 0.0175 12.2138 0.679375 13.5651 1.81625C14.9932 3.01812 15.7801 4.64937 15.7801 6.40875C15.7801 8.25313 13.9845 9.75375 11.7776 9.75375C11.222 9.75375 10.6845 9.66062 10.1795 9.47625C10.0413 9.42562 9.94195 9.31563 9.90758 9.17437C9.87195 9.03 9.91008 8.8825 10.012 8.77125C10.3613 8.3875 10.5538 7.89 10.5538 7.37063C10.5538 6.87188 10.3601 6.3425 10.1663 5.88812C9.94883 5.37812 9.64133 4.89375 9.25383 4.49563C8.42008 3.64 7.2782 3.20625 5.86008 3.20625C4.44133 3.20625 2.51883 3.56 1.41945 5.24375C1.4157 5.24938 1.41195 5.255 1.4082 5.26125C2.3182 2.2175 5.14508 0 8.47133 0Z" fill="#404B69"/>
<path d="M3.19912 12.8193C1.80537 11.413 1.04725 9.54805 1.06475 7.5668C1.06725 7.52367 1.10912 6.81804 1.51537 6.04054C1.63787 5.80617 1.78537 5.58304 1.95287 5.37804C2.69412 4.47429 3.82037 4.02617 4.96225 3.89992C6.09162 3.77492 7.30662 3.87242 8.2885 4.49429C8.28975 4.49492 8.29037 4.49554 8.29163 4.49617C8.82412 4.83492 9.27787 5.34117 9.57975 5.89429L9.581 5.89617C9.241 5.67179 8.83787 5.54554 8.411 5.54992C8.07537 5.55367 7.75287 5.65867 7.44475 5.78367C6.46475 6.18304 5.70162 6.92554 5.22975 7.94242C4.76787 8.93805 4.63475 10.1068 4.85475 11.2337C5.0785 12.378 5.66037 13.3912 6.49412 14.0868C6.71412 14.2705 6.9535 14.4337 7.20412 14.5718C7.52975 14.7512 7.88037 14.8918 8.2385 14.9918C8.24662 14.9943 8.25412 14.9968 8.26225 14.9987C6.346 14.9568 4.5535 14.1862 3.19912 12.8193Z" fill="#404B69"/>
<path d="M14.9321 11.56C13.904 13.1887 12.2458 14.3725 10.3802 14.8087C10.1771 14.8181 9.97459 14.8187 9.77209 14.8081C8.97459 14.7681 8.17834 14.5606 7.49334 14.1431C7.32521 14.0406 7.15646 13.9206 7.00334 13.7925C6.23771 13.1531 5.70209 12.2187 5.49521 11.1612C5.29021 10.1131 5.41334 9.02811 5.84146 8.10561C6.00959 7.74311 6.22771 7.40311 6.49271 7.10436C6.59021 6.99436 6.69459 6.88998 6.80459 6.79248C6.67646 7.07623 6.60834 7.38998 6.61459 7.71186C6.63896 8.92311 7.21396 10.0562 8.23459 10.9031C9.24709 11.7431 10.5852 12.2062 12.0021 12.2062C13.024 12.2062 14.0183 11.9625 14.8777 11.5012C14.8852 11.4975 14.9052 11.4869 14.9271 11.51C14.949 11.5331 14.9365 11.5525 14.9321 11.56Z" fill="#404B69"/>
</g>
<defs>
<clipPath id="clip0_535_7830">
<rect width="15" height="15" fill="white" transform="translate(0.921875)"/>
</clipPath>
</defs>
</svg>
